name analog
datacolumns 19
datarows 47
range 0.557 0.58
endheader
time	ground_force_vx	ground_force_vy	ground_force_vz	ground_force_px	ground_force_py	ground_force_pz	l_ground_force_vx	l_ground_force_vy	l_ground_force_vz	l_ground_force_px	l_ground_force_py	l_ground_force_pz	ground_torque_x	ground_torque_y	ground_torque_z	l_ground_torque_x	l_ground_torque_y	l_ground_torque_z
0.557	-0.0	-0.0	-0.0	-5.3023881912231445	71.03436279296875	-345.3105163574219	-10.899654388427734	-80.94096374511719	-370.54876708984375	-0.0	-0.0	-0.0	-0.0	-0.0	-0.0	51026.01171875	55552.96875	-14792.6025390625
0.5575	-0.0	-0.0	-0.0	-5.480978488922119	71.6249008178711	-343.79901123046875	-10.656729698181152	-80.69894409179688	-369.6080017089844	-0.0	-0.0	-0.0	-0.0	-0.0	-0.0	50947.3046875	55258.93359375	-14711.77734375
0.558	-0.0	-0.0	-0.0	-5.366978168487549	71.62157440185547	-341.6238098144531	-10.076966285705566	-80.71223449707031	-369.3479309082031	-0.0	-0.0	-0.0	-0.0	-0.0	-0.0	50768.55859375	54891.11328125	-14732.6865234375
0.5585	-0.0	-0.0	-0.0	-4.970903873443604	72.37388610839844	-341.1718139648437	-9.428229331970217	-81.1924057006836	-368.4102478027344	-0.0	-0.0	-0.0	-0.0	-0.0	-0.0	50747.04296875	54761.359375	-14638.6796875
0.559	-0.0	-0.0	-0.0	-4.475335597991943	72.50259399414062	-339.6609191894531	-9.077107429504396	-80.96629333496094	-366.2600708007813	-0.0	-0.0	-0.0	-0.0	-0.0	-0.0	50516.56640625	54547.59765625	-14633.533203125
0.5595	-0.0	-0.0	-0.0	-4.177880764007568	72.51243591308594	-337.99322509765625	-8.36354923248291	-81.39352416992188	-365.7564697265625	-0.0	-0.0	-0.0	-0.0	-0.0	-0.0	50558.34375	54328.54296875	-14532.3388671875
0.56	-0.0	-0.0	-0.0	-4.272723197937012	72.87467193603516	-335.9345703125	-7.983970642089844	-82.06554412841797	-364.6694030761719	-0.0	-0.0	-0.0	-0.0	-0.0	-0.0	50308.7578125	54184.3671875	-14383.91796875
0.5605	-0.0	-0.0	-0.0	-4.32218599319458	72.91513061523438	-335.1319274902344	-7.727401256561279	-82.29135131835938	-364.6700744628906	-0.0	-0.0	-0.0	-0.0	-0.0	-0.0	50413.3359375	53791.453125	-14405.2421875
0.561	-0.0	-0.0	-0.0	-4.159618854522705	72.3651123046875	-332.34234619140625	-7.145865440368652	-82.42852783203125	-364.0687255859375	-0.0	-0.0	-0.0	-0.0	-0.0	-0.0	50122.875	53596.953125	-14394.7158203125
0.5615	-0.0	-0.0	-0.0	-4.103683471679688	72.21158599853516	-330.5466003417969	-6.790854454040527	-82.32473754882812	-362.2976989746094	-0.0	-0.0	-0.0	-0.0	-0.0	-0.0	49676.703125	53299.01171875	-14323.806640625
0.562	-0.0	-0.0	-0.0	-3.8117215633392334	72.73040771484375	-329.3242492675781	-6.661940574645996	-82.74178314208984	-361.5635070800781	-0.0	-0.0	-0.0	-0.0	-0.0	-0.0	49783.671875	53135.859375	-14342.4619140625
0.5625	-0.0	-0.0	-0.0	-3.6983156204223633	73.06269073486328	-327.8470458984375	-6.145312786102295	-82.58078002929688	-361.180908203125	-0.0	-0.0	-0.0	-0.0	-0.0	-0.0	49708.68359375	52567.3671875	-14253.4482421875
0.5630000000000001	-0.0	-0.0	-0.0	-3.8193767070770255	72.84369659423828	-324.8595275878906	-6.548440933227539	-82.55670166015625	-359.7213439941406	-0.0	-0.0	-0.0	-0.0	-0.0	-0.0	49580.5	52443.90234375	-14283.224609375
0.5635	-0.0	-0.0	-0.0	-4.330328941345215	73.57353973388672	-323.3218994140625	-6.54047966003418	-82.8380126953125	-360.1651916503906	-0.0	-0.0	-0.0	-0.0	-0.0	-0.0	49500.234375	52163.90234375	-14240.2373046875
0.5640000000000001	-0.0	-0.0	-0.0	-4.53950834274292	73.46745300292969	-323.32257080078125	-6.0323333740234375	-83.19163513183594	-358.9571228027344	-0.0	-0.0	-0.0	-0.0	-0.0	-0.0	49579.296875	51895.6875	-14172.68359375
0.5645	-0.0	-0.0	-0.0	-4.353985786437988	74.00218200683594	-321.7994384765625	-6.0659499168396	-83.3995361328125	-358.1352233886719	-0.0	-0.0	-0.0	-0.0	-0.0	-0.0	49169.1875	51803.96875	-14258.6162109375
0.5650000000000001	-0.0	-0.0	-0.0	-4.603794574737549	74.33476257324219	-320.946044921875	-5.848079681396484	-83.86483764648438	-356.85986328125	-0.0	-0.0	-0.0	-0.0	-0.0	-0.0	49158.21484375	51451.0546875	-14078.228515625
0.5655	-0.0	-0.0	-0.0	-4.531906127929688	74.70313262939453	-318.28570556640625	-5.547672271728516	-84.54109191894531	-357.4120178222656	-0.0	-0.0	-0.0	-0.0	-0.0	-0.0	49112.14453125	51196.91796875	-14078.21484375
0.5660000000000001	-0.0	-0.0	-0.0	-4.549736022949219	75.13693237304688	-316.54315185546875	-5.837403297424316	-84.49402618408203	-354.738037109375	-0.0	-0.0	-0.0	-0.0	-0.0	-0.0	48729.1484375	50885.14453125	-14092.2236328125
0.5665	-0.0	-0.0	-0.0	-4.555099010467529	75.11112213134766	-314.40252685546875	-5.789853572845459	-84.94778442382812	-354.5286560058594	-0.0	-0.0	-0.0	-0.0	-0.0	-0.0	48432.66796875	50294.41015625	-13973.73046875
0.5670000000000001	-0.0	-0.0	-0.0	-4.793808937072754	76.09884643554688	-312.4510803222656	-5.588779449462891	-85.09517669677734	-352.8995361328125	-0.0	-0.0	-0.0	-0.0	-0.0	-0.0	48329.65625	50294.05859375	-13817.5068359375
0.5675	-0.0	-0.0	-0.0	-4.531004428863525	76.3238525390625	-310.5193176269531	-5.653987884521484	-84.75257873535156	-349.84991455078125	-0.0	-0.0	-0.0	-0.0	-0.0	-0.0	48058.0234375	49626.34765625	-13833.2724609375
0.5680000000000001	-0.0	-0.0	-0.0	-4.530750751495361	76.36136627197266	-307.71240234375	-5.267281532287598	-84.63055419921875	-348.5455017089844	-0.0	-0.0	-0.0	-0.0	-0.0	-0.0	47574.67578125	49139.421875	-13744.0322265625
0.5685	-0.0	-0.0	-0.0	-5.042438983917236	76.45466613769531	-303.4901123046875	-6.228458404541016	-84.24026489257812	-346.9466552734375	-0.0	-0.0	-0.0	-0.0	-0.0	-0.0	47451.2109375	48899.25	-13700.94921875
0.5690000000000001	-0.0	-0.0	-0.0	-5.026693344116211	76.87306213378906	-302.9363098144531	-6.106508731842041	-84.52384948730469	-345.0362243652344	-0.0	-0.0	-0.0	-0.0	-0.0	-0.0	47451.56640625	48483.04296875	-13479.185546875
0.5695	-0.0	-0.0	-0.0	-5.332942008972168	76.54335021972656	-301.0790100097656	-6.117013454437256	-84.57002258300781	-343.2914428710937	-0.0	-0.0	-0.0	-0.0	-0.0	-0.0	47122.73046875	48185.92578125	-13484.205078125
0.5700000000000001	-0.0	-0.0	-0.0	-5.511117935180664	76.47389221191406	-297.5853576660156	-6.206049919128418	-84.6738052368164	-342.2449645996094	-0.0	-0.0	-0.0	-0.0	-0.0	-0.0	47061.64453125	47649.8046875	-13323.1376953125
0.5705	-0.0	-0.0	-0.0	-5.729613780975342	76.58313751220703	-295.9533996582031	-6.36414098739624	-84.63511657714844	-340.75848388671875	-0.0	-0.0	-0.0	-0.0	-0.0	-0.0	46728.3125	47390.546875	-13211.1171875
0.5710000000000001	-0.0	-0.0	-0.0	-5.775744438171387	76.4000473022461	-292.5137634277344	-6.1011881828308105	-84.45838165283203	-338.9237060546875	-0.0	-0.0	-0.0	-0.0	-0.0	-0.0	46404.16796875	46665.6328125	-13077.96875
0.5715	-0.0	-0.0	-0.0	-6.398012161254883	75.38373565673828	-291.01129150390625	-5.969334602355957	-84.49826049804688	-336.93133544921875	-0.0	-0.0	-0.0	-0.0	-0.0	-0.0	46125.86328125	46525.96875	-12959.2294921875
0.5720000000000001	-0.0	-0.0	-0.0	-6.263651371002197	75.25076293945312	-288.375244140625	-6.12353515625	-83.77436065673828	-333.69921875	-0.0	-0.0	-0.0	-0.0	-0.0	-0.0	45964.4453125	45803.60546875	-12891.37109375
0.5725	-0.0	-0.0	-0.0	-6.157131195068359	74.4660415649414	-286.6922302246094	-6.566762447357178	-83.33258819580078	-332.2135009765625	-0.0	-0.0	-0.0	-0.0	-0.0	-0.0	45576.79296875	45443.21484375	-12647.5234375
0.5730000000000001	-0.0	-0.0	-0.0	-6.090291976928711	73.623046875	-282.454345703125	-6.721266269683838	-82.691650390625	-329.68829345703125	-0.0	-0.0	-0.0	-0.0	-0.0	-0.0	45538.14453125	44898.29296875	-12454.3818359375
0.5735	-0.0	-0.0	-0.0	-5.822237968444824	73.17506408691406	-279.18280029296875	-6.830730438232422	-82.09423828125	-325.6696472167969	-0.0	-0.0	-0.0	-0.0	-0.0	-0.0	45173.58203125	44323.10546875	-12269.9345703125
0.5740000000000001	-0.0	-0.0	-0.0	-6.267220497131348	71.92823791503906	-275.127197265625	-6.851940155029297	-81.27835083007812	-322.793212890625	-0.0	-0.0	-0.0	-0.0	-0.0	-0.0	44351.91796875	43724.7265625	-12062.4580078125
0.5745	-0.0	-0.0	-0.0	-5.88828706741333	70.39064025878906	-271.3277587890625	-6.455389022827148	-79.95249938964844	-318.9481201171875	-0.0	-0.0	-0.0	-0.0	-0.0	-0.0	44009.3515625	43222.18359375	-11912.3623046875
0.5750000000000001	-0.0	-0.0	-0.0	-5.687211513519287	69.32110595703125	-267.2688903808594	-6.896484375	-79.04791259765625	-314.2340393066406	-0.0	-0.0	-0.0	-0.0	-0.0	-0.0	43413.046875	42411.53125	-11667.8056640625
0.5755	-0.0	-0.0	-0.0	-6.088138580322266	67.6726303100586	-263.9135131835937	-7.31881856918335	-77.61223602294922	-310.046630859375	-0.0	-0.0	-0.0	-0.0	-0.0	-0.0	42719.76171875	41848.9140625	-11579.001953125
0.5760000000000001	-0.0	-0.0	-0.0	-6.423707485198975	65.66696166992188	-260.4712829589844	-7.806528091430664	-76.28784942626953	-307.427978515625	-0.0	-0.0	-0.0	-0.0	-0.0	-0.0	42347.39453125	41544.95703125	-11423.3310546875
0.5765	-0.0	-0.0	-0.0	-7.181882381439209	64.5533447265625	-257.0310363769531	-8.53803825378418	-75.44902801513672	-303.6749267578125	-0.0	-0.0	-0.0	-0.0	-0.0	-0.0	42034.43359375	40645.42578125	-11238.1435546875
0.577	-0.0	-0.0	-0.0	-7.581750869750977	62.7940788269043	-251.72560119628903	-9.136643409729004	-73.65971374511719	-298.4356689453125	-0.0	-0.0	-0.0	-0.0	-0.0	-0.0	41535.8125	40276.6953125	-10896.9833984375
0.5775	-0.0	-0.0	-0.0	-7.5594801902771	60.87754440307617	-249.79676818847656	-9.558813095092772	-72.0713882446289	-295.90777587890625	-0.0	-0.0	-0.0	-0.0	-0.0	-0.0	40752.859375	39597.8828125	-10837.4951171875
0.578	-0.0	-0.0	-0.0	-7.737699508666992	59.53561401367188	-247.23980712890625	-9.91372299194336	-70.39122009277344	-291.3693542480469	-0.0	-0.0	-0.0	-0.0	-0.0	-0.0	40624.203125	39170.578125	-10600.357421875
0.5785	-0.0	-0.0	-0.0	-8.609850883483887	57.84977722167969	-241.04119873046875	-10.75580883026123	-68.2045669555664	-288.4109802246094	-0.0	-0.0	-0.0	-0.0	-0.0	-0.0	39988.34765625	38496.796875	-10473.5078125
0.579	-0.0	-0.0	-0.0	-8.429187774658203	55.75226974487305	-237.9669189453125	-11.351320266723633	-66.41972351074219	-283.7748107910156	-0.0	-0.0	-0.0	-0.0	-0.0	-0.0	39523.8125	37968.66015625	-10416.45703125
0.5795	-0.0	-0.0	-0.0	-9.345470428466797	53.87799072265625	-234.693359375	-13.220003128051758	-64.21403503417969	-278.4525451660156	-0.0	-0.0	-0.0	-0.0	-0.0	-0.0	38837.69921875	37734.76171875	-10111.4853515625
0.58	-0.0	-0.0	-0.0	-9.680848121643066	52.49781036376953	-230.797119140625	-13.371326446533203	-62.02572250366211	-274.86724853515625	-0.0	-0.0	-0.0	-0.0	-0.0	-0.0	38434.1484375	37013.4921875	-10053.3359375
